<?xml version="1.0" encoding="UTF-8" standalone="no"?>
<!DOCTYPE svg PUBLIC "-//W3C//DTD SVG 1.1//EN"
 "http://www.w3.org/Graphics/SVG/1.1/DTD/svg11.dtd">
<!-- Generated by graphviz version 2.43.0 (0)
 -->
<!-- Title: %3 Pages: 1 -->
<svg width="507pt" height="864pt"
 viewBox="0.00 0.00 507.25 864.00" xmlns="http://www.w3.org/2000/svg" xmlns:xlink="http://www.w3.org/1999/xlink">
<g id="graph0" class="graph" transform="scale(1.08 1.08) rotate(0) translate(4 926)">
<title>%3</title>
<polygon fill="white" stroke="transparent" points="-4,4 -4,-926 542,-926 542,4 -4,4"/>
<!-- 139878729281184 -->
<g id="node1" class="node">
<title>139878729281184</title>
<polygon fill="#caff70" stroke="black" points="451.5,-31 397.5,-31 397.5,0 451.5,0 451.5,-31"/>
<text text-anchor="middle" x="424.5" y="-7" font-family="monospace" font-size="10.00"> (10)</text>
</g>
<!-- 139876087764064 -->
<g id="node2" class="node">
<title>139876087764064</title>
<polygon fill="lightgrey" stroke="black" points="469,-86 380,-86 380,-67 469,-67 469,-86"/>
<text text-anchor="middle" x="424.5" y="-74" font-family="monospace" font-size="10.00">AddBackward0</text>
</g>
<!-- 139876087764064&#45;&gt;139878729281184 -->
<g id="edge27" class="edge">
<title>139876087764064&#45;&gt;139878729281184</title>
<path fill="none" stroke="black" d="M424.5,-66.79C424.5,-60.07 424.5,-50.4 424.5,-41.34"/>
<polygon fill="black" stroke="black" points="428,-41.19 424.5,-31.19 421,-41.19 428,-41.19"/>
</g>
<!-- 139876087763632 -->
<g id="node3" class="node">
<title>139876087763632</title>
<polygon fill="lightgrey" stroke="black" points="419,-141 306,-141 306,-122 419,-122 419,-141"/>
<text text-anchor="middle" x="362.5" y="-129" font-family="monospace" font-size="10.00">SqueezeBackward3</text>
</g>
<!-- 139876087763632&#45;&gt;139876087764064 -->
<g id="edge1" class="edge">
<title>139876087763632&#45;&gt;139876087764064</title>
<path fill="none" stroke="black" d="M372.46,-121.98C381.63,-114.15 395.44,-102.34 406.53,-92.86"/>
<polygon fill="black" stroke="black" points="409.03,-95.33 414.36,-86.17 404.48,-90.01 409.03,-95.33"/>
</g>
<!-- 139876087763056 -->
<g id="node4" class="node">
<title>139876087763056</title>
<polygon fill="lightgrey" stroke="black" points="404,-201.5 321,-201.5 321,-182.5 404,-182.5 404,-201.5"/>
<text text-anchor="middle" x="362.5" y="-189.5" font-family="monospace" font-size="10.00">MmBackward0</text>
</g>
<!-- 139876087763056&#45;&gt;139876087763632 -->
<g id="edge2" class="edge">
<title>139876087763056&#45;&gt;139876087763632</title>
<path fill="none" stroke="black" d="M362.5,-182.37C362.5,-174.25 362.5,-161.81 362.5,-151.39"/>
<polygon fill="black" stroke="black" points="366,-151.17 362.5,-141.17 359,-151.17 366,-151.17"/>
</g>
<!-- 139876087763152 -->
<g id="node5" class="node">
<title>139876087763152</title>
<polygon fill="lightgrey" stroke="black" points="366,-262 241,-262 241,-243 366,-243 366,-262"/>
<text text-anchor="middle" x="303.5" y="-250" font-family="monospace" font-size="10.00">UnsqueezeBackward0</text>
</g>
<!-- 139876087763152&#45;&gt;139876087763056 -->
<g id="edge3" class="edge">
<title>139876087763152&#45;&gt;139876087763056</title>
<path fill="none" stroke="black" d="M312.21,-242.87C321.18,-233.97 335.38,-219.89 346.41,-208.95"/>
<polygon fill="black" stroke="black" points="349.12,-211.19 353.76,-201.67 344.19,-206.22 349.12,-211.19"/>
</g>
<!-- 139876087764352 -->
<g id="node6" class="node">
<title>139876087764352</title>
<polygon fill="lightgrey" stroke="black" points="348,-317 259,-317 259,-298 348,-298 348,-317"/>
<text text-anchor="middle" x="303.5" y="-305" font-family="monospace" font-size="10.00">AddBackward0</text>
</g>
<!-- 139876087764352&#45;&gt;139876087763152 -->
<g id="edge4" class="edge">
<title>139876087764352&#45;&gt;139876087763152</title>
<path fill="none" stroke="black" d="M303.5,-297.75C303.5,-290.8 303.5,-280.85 303.5,-272.13"/>
<polygon fill="black" stroke="black" points="307,-272.09 303.5,-262.09 300,-272.09 307,-272.09"/>
</g>
<!-- 139876087764448 -->
<g id="node7" class="node">
<title>139876087764448</title>
<polygon fill="lightgrey" stroke="black" points="237,-377.5 124,-377.5 124,-358.5 237,-358.5 237,-377.5"/>
<text text-anchor="middle" x="180.5" y="-365.5" font-family="monospace" font-size="10.00">SqueezeBackward3</text>
</g>
<!-- 139876087764448&#45;&gt;139876087764352 -->
<g id="edge5" class="edge">
<title>139876087764448&#45;&gt;139876087764352</title>
<path fill="none" stroke="black" d="M198.39,-358.49C218.88,-348.75 252.69,-332.66 276.42,-321.38"/>
<polygon fill="black" stroke="black" points="278.07,-324.47 285.59,-317.02 275.06,-318.15 278.07,-324.47"/>
</g>
<!-- 139876087765312 -->
<g id="node8" class="node">
<title>139876087765312</title>
<polygon fill="lightgrey" stroke="black" points="222,-443.5 139,-443.5 139,-424.5 222,-424.5 222,-443.5"/>
<text text-anchor="middle" x="180.5" y="-431.5" font-family="monospace" font-size="10.00">MmBackward0</text>
</g>
<!-- 139876087765312&#45;&gt;139876087764448 -->
<g id="edge6" class="edge">
<title>139876087765312&#45;&gt;139876087764448</title>
<path fill="none" stroke="black" d="M180.5,-424.37C180.5,-415.16 180.5,-400.29 180.5,-388.27"/>
<polygon fill="black" stroke="black" points="184,-387.91 180.5,-377.91 177,-387.91 184,-387.91"/>
</g>
<!-- 139876087764496 -->
<g id="node9" class="node">
<title>139876087764496</title>
<polygon fill="lightgrey" stroke="black" points="184,-504 59,-504 59,-485 184,-485 184,-504"/>
<text text-anchor="middle" x="121.5" y="-492" font-family="monospace" font-size="10.00">UnsqueezeBackward0</text>
</g>
<!-- 139876087764496&#45;&gt;139876087765312 -->
<g id="edge7" class="edge">
<title>139876087764496&#45;&gt;139876087765312</title>
<path fill="none" stroke="black" d="M130.21,-484.87C139.18,-475.97 153.38,-461.89 164.41,-450.95"/>
<polygon fill="black" stroke="black" points="167.12,-453.19 171.76,-443.67 162.19,-448.22 167.12,-453.19"/>
</g>
<!-- 139876087765648 -->
<g id="node10" class="node">
<title>139876087765648</title>
<polygon fill="lightgrey" stroke="black" points="175,-559 62,-559 62,-540 175,-540 175,-559"/>
<text text-anchor="middle" x="118.5" y="-547" font-family="monospace" font-size="10.00">SigmoidBackward0</text>
</g>
<!-- 139876087765648&#45;&gt;139876087764496 -->
<g id="edge8" class="edge">
<title>139876087765648&#45;&gt;139876087764496</title>
<path fill="none" stroke="black" d="M119,-539.75C119.39,-532.8 119.95,-522.85 120.45,-514.13"/>
<polygon fill="black" stroke="black" points="123.94,-514.27 121.01,-504.09 116.95,-513.88 123.94,-514.27"/>
</g>
<!-- 139876087765456 -->
<g id="node11" class="node">
<title>139876087765456</title>
<polygon fill="lightgrey" stroke="black" points="163,-619.5 74,-619.5 74,-600.5 163,-600.5 163,-619.5"/>
<text text-anchor="middle" x="118.5" y="-607.5" font-family="monospace" font-size="10.00">AddBackward0</text>
</g>
<!-- 139876087765456&#45;&gt;139876087765648 -->
<g id="edge9" class="edge">
<title>139876087765456&#45;&gt;139876087765648</title>
<path fill="none" stroke="black" d="M118.5,-600.37C118.5,-592.25 118.5,-579.81 118.5,-569.39"/>
<polygon fill="black" stroke="black" points="122,-569.17 118.5,-559.17 115,-569.17 122,-569.17"/>
</g>
<!-- 139876087764208 -->
<g id="node12" class="node">
<title>139876087764208</title>
<polygon fill="lightgrey" stroke="black" points="113,-680 0,-680 0,-661 113,-661 113,-680"/>
<text text-anchor="middle" x="56.5" y="-668" font-family="monospace" font-size="10.00">SqueezeBackward3</text>
</g>
<!-- 139876087764208&#45;&gt;139876087765456 -->
<g id="edge10" class="edge">
<title>139876087764208&#45;&gt;139876087765456</title>
<path fill="none" stroke="black" d="M65.65,-660.87C75.17,-651.88 90.3,-637.61 101.93,-626.64"/>
<polygon fill="black" stroke="black" points="104.44,-629.08 109.31,-619.67 99.64,-623.98 104.44,-629.08"/>
</g>
<!-- 139876087766896 -->
<g id="node13" class="node">
<title>139876087766896</title>
<polygon fill="lightgrey" stroke="black" points="98,-740.5 15,-740.5 15,-721.5 98,-721.5 98,-740.5"/>
<text text-anchor="middle" x="56.5" y="-728.5" font-family="monospace" font-size="10.00">MmBackward0</text>
</g>
<!-- 139876087766896&#45;&gt;139876087764208 -->
<g id="edge11" class="edge">
<title>139876087766896&#45;&gt;139876087764208</title>
<path fill="none" stroke="black" d="M56.5,-721.37C56.5,-713.25 56.5,-700.81 56.5,-690.39"/>
<polygon fill="black" stroke="black" points="60,-690.17 56.5,-680.17 53,-690.17 60,-690.17"/>
</g>
<!-- 139876087764736 -->
<g id="node14" class="node">
<title>139876087764736</title>
<polygon fill="lightgrey" stroke="black" points="95,-801 18,-801 18,-782 95,-782 95,-801"/>
<text text-anchor="middle" x="56.5" y="-789" font-family="monospace" font-size="10.00">TBackward0</text>
</g>
<!-- 139876087764736&#45;&gt;139876087766896 -->
<g id="edge12" class="edge">
<title>139876087764736&#45;&gt;139876087766896</title>
<path fill="none" stroke="black" d="M56.5,-781.87C56.5,-773.75 56.5,-761.31 56.5,-750.89"/>
<polygon fill="black" stroke="black" points="60,-750.67 56.5,-740.67 53,-750.67 60,-750.67"/>
</g>
<!-- 139876087764784 -->
<g id="node15" class="node">
<title>139876087764784</title>
<polygon fill="lightgrey" stroke="black" points="107,-856 6,-856 6,-837 107,-837 107,-856"/>
<text text-anchor="middle" x="56.5" y="-844" font-family="monospace" font-size="10.00">AccumulateGrad</text>
</g>
<!-- 139876087764784&#45;&gt;139876087764736 -->
<g id="edge13" class="edge">
<title>139876087764784&#45;&gt;139876087764736</title>
<path fill="none" stroke="black" d="M56.5,-836.75C56.5,-829.8 56.5,-819.85 56.5,-811.13"/>
<polygon fill="black" stroke="black" points="60,-811.09 56.5,-801.09 53,-811.09 60,-811.09"/>
</g>
<!-- 139876130629008 -->
<g id="node16" class="node">
<title>139876130629008</title>
<polygon fill="lightblue" stroke="black" points="104,-922 9,-922 9,-892 104,-892 104,-922"/>
<text text-anchor="middle" x="56.5" y="-910" font-family="monospace" font-size="10.00">hidden.weight</text>
<text text-anchor="middle" x="56.5" y="-899" font-family="monospace" font-size="10.00"> (32, 64)</text>
</g>
<!-- 139876130629008&#45;&gt;139876087764784 -->
<g id="edge14" class="edge">
<title>139876130629008&#45;&gt;139876087764784</title>
<path fill="none" stroke="black" d="M56.5,-891.84C56.5,-884.21 56.5,-874.7 56.5,-866.45"/>
<polygon fill="black" stroke="black" points="60,-866.27 56.5,-856.27 53,-866.27 60,-866.27"/>
</g>
<!-- 139876087765264 -->
<g id="node17" class="node">
<title>139876087765264</title>
<polygon fill="lightgrey" stroke="black" points="232,-680 131,-680 131,-661 232,-661 232,-680"/>
<text text-anchor="middle" x="181.5" y="-668" font-family="monospace" font-size="10.00">AccumulateGrad</text>
</g>
<!-- 139876087765264&#45;&gt;139876087765456 -->
<g id="edge15" class="edge">
<title>139876087765264&#45;&gt;139876087765456</title>
<path fill="none" stroke="black" d="M172.2,-660.87C162.53,-651.88 147.16,-637.61 135.34,-626.64"/>
<polygon fill="black" stroke="black" points="137.54,-623.91 127.83,-619.67 132.78,-629.04 137.54,-623.91"/>
</g>
<!-- 139876130584192 -->
<g id="node18" class="node">
<title>139876130584192</title>
<polygon fill="lightblue" stroke="black" points="223,-746 140,-746 140,-716 223,-716 223,-746"/>
<text text-anchor="middle" x="181.5" y="-734" font-family="monospace" font-size="10.00">hidden.bias</text>
<text text-anchor="middle" x="181.5" y="-723" font-family="monospace" font-size="10.00"> (32)</text>
</g>
<!-- 139876130584192&#45;&gt;139876087765264 -->
<g id="edge16" class="edge">
<title>139876130584192&#45;&gt;139876087765264</title>
<path fill="none" stroke="black" d="M181.5,-715.84C181.5,-708.21 181.5,-698.7 181.5,-690.45"/>
<polygon fill="black" stroke="black" points="185,-690.27 181.5,-680.27 178,-690.27 185,-690.27"/>
</g>
<!-- 139876087765072 -->
<g id="node19" class="node">
<title>139876087765072</title>
<polygon fill="lightgrey" stroke="black" points="280,-504 203,-504 203,-485 280,-485 280,-504"/>
<text text-anchor="middle" x="241.5" y="-492" font-family="monospace" font-size="10.00">TBackward0</text>
</g>
<!-- 139876087765072&#45;&gt;139876087765312 -->
<g id="edge17" class="edge">
<title>139876087765072&#45;&gt;139876087765312</title>
<path fill="none" stroke="black" d="M232.5,-484.87C223.13,-475.88 208.25,-461.61 196.8,-450.64"/>
<polygon fill="black" stroke="black" points="199.18,-448.06 189.54,-443.67 194.33,-453.12 199.18,-448.06"/>
</g>
<!-- 139876087765120 -->
<g id="node20" class="node">
<title>139876087765120</title>
<polygon fill="lightgrey" stroke="black" points="294,-559 193,-559 193,-540 294,-540 294,-559"/>
<text text-anchor="middle" x="243.5" y="-547" font-family="monospace" font-size="10.00">AccumulateGrad</text>
</g>
<!-- 139876087765120&#45;&gt;139876087765072 -->
<g id="edge18" class="edge">
<title>139876087765120&#45;&gt;139876087765072</title>
<path fill="none" stroke="black" d="M243.17,-539.75C242.91,-532.8 242.53,-522.85 242.2,-514.13"/>
<polygon fill="black" stroke="black" points="245.7,-513.95 241.82,-504.09 238.7,-514.21 245.7,-513.95"/>
</g>
<!-- 139876130627808 -->
<g id="node21" class="node">
<title>139876130627808</title>
<polygon fill="lightblue" stroke="black" points="294,-625 193,-625 193,-595 294,-595 294,-625"/>
<text text-anchor="middle" x="243.5" y="-613" font-family="monospace" font-size="10.00">hidden1.weight</text>
<text text-anchor="middle" x="243.5" y="-602" font-family="monospace" font-size="10.00"> (16, 32)</text>
</g>
<!-- 139876130627808&#45;&gt;139876087765120 -->
<g id="edge19" class="edge">
<title>139876130627808&#45;&gt;139876087765120</title>
<path fill="none" stroke="black" d="M243.5,-594.84C243.5,-587.21 243.5,-577.7 243.5,-569.45"/>
<polygon fill="black" stroke="black" points="247,-569.27 243.5,-559.27 240,-569.27 247,-569.27"/>
</g>
<!-- 139876087763392 -->
<g id="node22" class="node">
<title>139876087763392</title>
<polygon fill="lightgrey" stroke="black" points="356,-377.5 255,-377.5 255,-358.5 356,-358.5 356,-377.5"/>
<text text-anchor="middle" x="305.5" y="-365.5" font-family="monospace" font-size="10.00">AccumulateGrad</text>
</g>
<!-- 139876087763392&#45;&gt;139876087764352 -->
<g id="edge20" class="edge">
<title>139876087763392&#45;&gt;139876087764352</title>
<path fill="none" stroke="black" d="M305.2,-358.37C304.93,-350.25 304.5,-337.81 304.15,-327.39"/>
<polygon fill="black" stroke="black" points="307.64,-327.04 303.8,-317.17 300.64,-327.28 307.64,-327.04"/>
</g>
<!-- 139876130637760 -->
<g id="node23" class="node">
<title>139876130637760</title>
<polygon fill="lightblue" stroke="black" points="350,-449 261,-449 261,-419 350,-419 350,-449"/>
<text text-anchor="middle" x="305.5" y="-437" font-family="monospace" font-size="10.00">hidden1.bias</text>
<text text-anchor="middle" x="305.5" y="-426" font-family="monospace" font-size="10.00"> (16)</text>
</g>
<!-- 139876130637760&#45;&gt;139876087763392 -->
<g id="edge21" class="edge">
<title>139876130637760&#45;&gt;139876087763392</title>
<path fill="none" stroke="black" d="M305.5,-418.8C305.5,-409.7 305.5,-397.79 305.5,-387.9"/>
<polygon fill="black" stroke="black" points="309,-387.84 305.5,-377.84 302,-387.84 309,-387.84"/>
</g>
<!-- 139876087763776 -->
<g id="node24" class="node">
<title>139876087763776</title>
<polygon fill="lightgrey" stroke="black" points="461,-262 384,-262 384,-243 461,-243 461,-262"/>
<text text-anchor="middle" x="422.5" y="-250" font-family="monospace" font-size="10.00">TBackward0</text>
</g>
<!-- 139876087763776&#45;&gt;139876087763056 -->
<g id="edge22" class="edge">
<title>139876087763776&#45;&gt;139876087763056</title>
<path fill="none" stroke="black" d="M413.65,-242.87C404.52,-233.97 390.08,-219.89 378.86,-208.95"/>
<polygon fill="black" stroke="black" points="380.99,-206.14 371.39,-201.67 376.11,-211.15 380.99,-206.14"/>
</g>
<!-- 139876087763248 -->
<g id="node25" class="node">
<title>139876087763248</title>
<polygon fill="lightgrey" stroke="black" points="473,-317 372,-317 372,-298 473,-298 473,-317"/>
<text text-anchor="middle" x="422.5" y="-305" font-family="monospace" font-size="10.00">AccumulateGrad</text>
</g>
<!-- 139876087763248&#45;&gt;139876087763776 -->
<g id="edge23" class="edge">
<title>139876087763248&#45;&gt;139876087763776</title>
<path fill="none" stroke="black" d="M422.5,-297.75C422.5,-290.8 422.5,-280.85 422.5,-272.13"/>
<polygon fill="black" stroke="black" points="426,-272.09 422.5,-262.09 419,-272.09 426,-272.09"/>
</g>
<!-- 139876130637440 -->
<g id="node26" class="node">
<title>139876130637440</title>
<polygon fill="lightblue" stroke="black" points="470,-383 375,-383 375,-353 470,-353 470,-383"/>
<text text-anchor="middle" x="422.5" y="-371" font-family="monospace" font-size="10.00">output.weight</text>
<text text-anchor="middle" x="422.5" y="-360" font-family="monospace" font-size="10.00"> (10, 16)</text>
</g>
<!-- 139876130637440&#45;&gt;139876087763248 -->
<g id="edge24" class="edge">
<title>139876130637440&#45;&gt;139876087763248</title>
<path fill="none" stroke="black" d="M422.5,-352.84C422.5,-345.21 422.5,-335.7 422.5,-327.45"/>
<polygon fill="black" stroke="black" points="426,-327.27 422.5,-317.27 419,-327.27 426,-327.27"/>
</g>
<!-- 139876087763440 -->
<g id="node27" class="node">
<title>139876087763440</title>
<polygon fill="lightgrey" stroke="black" points="538,-141 437,-141 437,-122 538,-122 538,-141"/>
<text text-anchor="middle" x="487.5" y="-129" font-family="monospace" font-size="10.00">AccumulateGrad</text>
</g>
<!-- 139876087763440&#45;&gt;139876087764064 -->
<g id="edge25" class="edge">
<title>139876087763440&#45;&gt;139876087764064</title>
<path fill="none" stroke="black" d="M477.38,-121.98C468.06,-114.15 454.03,-102.34 442.76,-92.86"/>
<polygon fill="black" stroke="black" points="444.71,-89.93 434.81,-86.17 440.21,-95.29 444.71,-89.93"/>
</g>
<!-- 139876130637360 -->
<g id="node28" class="node">
<title>139876130637360</title>
<polygon fill="lightblue" stroke="black" points="529,-207 446,-207 446,-177 529,-177 529,-207"/>
<text text-anchor="middle" x="487.5" y="-195" font-family="monospace" font-size="10.00">output.bias</text>
<text text-anchor="middle" x="487.5" y="-184" font-family="monospace" font-size="10.00"> (10)</text>
</g>
<!-- 139876130637360&#45;&gt;139876087763440 -->
<g id="edge26" class="edge">
<title>139876130637360&#45;&gt;139876087763440</title>
<path fill="none" stroke="black" d="M487.5,-176.84C487.5,-169.21 487.5,-159.7 487.5,-151.45"/>
<polygon fill="black" stroke="black" points="491,-151.27 487.5,-141.27 484,-151.27 491,-151.27"/>
</g>
</g>
</svg>
